<?xml version="1.0" encoding="UTF-8"?>
<svg id="Laag_1" xmlns="http://www.w3.org/2000/svg" version="1.1" viewBox="0 0 800 800">
  <!-- Generator: Adobe Illustrator 29.5.1, SVG Export Plug-In . SVG Version: 2.1.0 Build 141)  -->
  <defs>
    <style>
      .st0 {
        fill: #ffe863;
      }
    </style>
  </defs>
  <path class="st0" d="M495.23,164.2c-35.56-85.59-154.9-85.59-190.47,0l-18.64,44.87c-7.42,17.86-23.6,30.01-42.09,32.11l-52.02,5.89c-87.94,9.96-123.04,119.44-59.8,180.57l44.17,42.7c13.05,12.62,18.92,31.33,15.32,49.53l-10.66,53.94c-17.71,89.56,78.8,159.47,156.56,109.54l34.89-22.4c16.84-10.81,38.19-10.81,55.03,0l34.89,22.4c77.76,49.92,174.27-19.98,156.56-109.54l-10.67-53.94c-3.6-18.2,2.27-36.92,15.32-49.53l44.17-42.7c63.23-61.13,28.14-170.61-59.8-180.57l-52.02-5.89c-18.49-2.09-34.66-14.24-42.09-32.11l-18.64-44.87Z"/>
</svg>