<?xml version="1.0" encoding="UTF-8"?>
<svg id="Capa_1" xmlns="http://www.w3.org/2000/svg" version="1.1" viewBox="0 0 800 800">
  <!-- Generator: Adobe Illustrator 29.5.1, SVG Export Plug-In . SVG Version: 2.1.0 Build 141)  -->
  <defs>
    <style>
      .st0 {
        fill: #ffe863;
      }
    </style>
  </defs>
  <path class="st0" d="M797.5,305.88c-6-18.47-21.97-31.94-41.19-34.73l-214.58-31.18-95.97-194.44c-8.6-17.42-26.34-28.44-45.76-28.44s-37.16,11.03-45.76,28.44l-95.97,194.44-214.58,31.19c-19.22,2.79-35.19,16.26-41.19,34.73-6,18.47-1,38.75,12.91,52.31l155.27,151.36-36.66,213.72c-3.28,19.15,4.58,38.49,20.3,49.91s36.55,12.92,53.74,3.88l191.93-100.9,191.93,100.9c7.47,3.93,15.62,5.86,23.74,5.86,10.58,0,21.11-3.29,30-9.75,15.71-11.42,23.58-30.77,20.3-49.91l-36.65-213.72,155.27-151.36c13.91-13.56,18.92-33.84,12.92-52.31Z"/>
</svg>