<?xml version="1.0" encoding="UTF-8"?>
<svg id="Laag_1" xmlns="http://www.w3.org/2000/svg" version="1.1" viewBox="0 0 800 800">
  <!-- Generator: Adobe Illustrator 29.5.1, SVG Export Plug-In . SVG Version: 2.1.0 Build 141)  -->
  <defs>
    <style>
      .st0 {
        fill: none;
        stroke: #ffe863;
        stroke-linecap: round;
        stroke-linejoin: round;
        stroke-width: 66.67px;
      }
    </style>
  </defs>
  <path class="st0" d="M400,100l67.86,172.05c6.26,15.88,9.39,23.82,14.19,30.52,4.25,5.94,9.45,11.13,15.38,15.38,6.7,4.8,14.64,7.93,30.52,14.19l172.05,67.86-172.05,67.86c-15.88,6.26-23.82,9.39-30.52,14.19-5.94,4.25-11.13,9.45-15.38,15.38-4.8,6.7-7.93,14.64-14.19,30.52l-67.86,172.05-67.86-172.05c-6.26-15.88-9.4-23.82-14.19-30.52-4.25-5.94-9.45-11.13-15.38-15.38-6.7-4.8-14.64-7.93-30.52-14.19l-172.05-67.86,172.05-67.86c15.88-6.26,23.82-9.4,30.52-14.19,5.94-4.25,11.13-9.45,15.38-15.38,4.8-6.7,7.93-14.64,14.19-30.52l67.86-172.05Z"/>
</svg>